<svg xmlns="http://www.w3.org/2000/svg" width="512" height="512" viewBox="0 0 512 512" version="1.1">
  <path d="" stroke="none" fill="#080404" fill-rule="evenodd" />
  <path
    d="M 431.589 25.121 C 425.206 26.614, 421.751 29.423, 412.989 40.238 C 402.591 53.074, 376.169 79.437, 361 92.111 C 302.822 140.720, 231.557 185.518, 140.980 230.420 C 104.596 248.456, 97.608 252.711, 85.425 264.243 C 67.011 281.673, 54.505 303, 48.332 327.500 C 44.817 341.449, 43.971 365.576, 46.501 379.693 C 48.681 391.853, 54.082 407.681, 58.598 415.141 C 63.380 423.041, 73.455 432.130, 82.204 436.436 C 92.730 441.618, 101.803 443.336, 119 443.406 C 131.235 443.456, 134.743 443.108, 141.455 441.179 C 154.108 437.544, 162.424 432.670, 171.543 423.547 C 184.072 411.012, 188.702 399.439, 187.764 382.999 C 186.947 368.658, 180.486 357.911, 168.788 351.430 C 164.039 348.799, 162.582 348.500, 154.500 348.500 C 146.998 348.500, 144.681 348.903, 140.577 350.923 C 124.832 358.672, 117.721 378.680, 128.087 386.062 C 139.555 394.228, 134.015 411.993, 120 411.993 C 108.981 411.993, 97.423 397.994, 94.863 381.546 C 91.992 363.104, 104.409 338.967, 122.317 328.179 C 150.376 311.278, 186.675 319.294, 204.800 346.393 C 220.002 369.122, 220.871 396.316, 207.279 423.924 C 203.423 431.754, 200.980 435.070, 192.826 443.535 C 187.430 449.138, 182.336 455.345, 181.507 457.329 C 179.435 462.289, 179.655 468.641, 182.084 474 C 184.622 479.598, 187.360 482.581, 192.500 485.347 C 196.323 487.405, 197.961 487.515, 229.500 487.832 C 278.993 488.330, 296.747 486.373, 317.257 478.161 C 342.163 468.188, 362.792 447.908, 375.165 421.232 C 379.888 411.049, 380.240 405.627, 376.467 401.143 C 372.265 396.149, 368.807 395.599, 356.341 397.942 C 345.324 400.013, 319.239 403, 312.176 403 C 303.496 403, 297.499 394.715, 300.214 386.475 C 301.983 381.106, 306.173 378.560, 315.677 377.077 C 369.319 368.708, 407.869 343.692, 422.950 307.466 C 430.306 289.795, 433.070 270.160, 431.184 248.961 C 429.918 234.718, 428.569 230.863, 424.033 228.517 C 417.843 225.316, 415.794 226.133, 394.377 240.348 C 363.535 260.817, 337.275 275.650, 310.758 287.578 C 295.869 294.277, 291.984 295.077, 286.967 292.483 C 281.092 289.445, 279.014 279.795, 283.112 274.585 C 284.374 272.980, 291.719 268.651, 301.362 263.827 C 340.105 244.447, 375.102 221.070, 409.531 191.572 C 440.267 165.239, 458.466 136.847, 465.024 105 C 468.089 90.111, 467.476 68.557, 463.620 55.703 C 460.539 45.429, 455.884 35.678, 452.144 31.658 C 446.911 26.035, 438.762 23.443, 431.589 25.121"
    stroke="none" fill="#040404" fill-rule="evenodd" />
</svg>